<svg width="33" height="33" viewBox="0 0 33 33" fill="none" xmlns="http://www.w3.org/2000/svg">
<circle cx="16.5" cy="16.5" r="16.5" fill="#EEEEEE"/>
<path fill-rule="evenodd" clip-rule="evenodd" d="M11.3437 16.5C11.3437 17.6391 10.4203 18.5625 9.28125 18.5625C8.14216 18.5625 7.21875 17.6391 7.21875 16.5C7.21875 15.3609 8.14216 14.4375 9.28125 14.4375C10.4203 14.4375 11.3437 15.3609 11.3437 16.5ZM18.5625 16.5C18.5625 17.6391 17.6391 18.5625 16.5 18.5625C15.3609 18.5625 14.4375 17.6391 14.4375 16.5C14.4375 15.3609 15.3609 14.4375 16.5 14.4375C17.6391 14.4375 18.5625 15.3609 18.5625 16.5ZM23.7188 18.5625C24.8578 18.5625 25.7812 17.6391 25.7812 16.5C25.7812 15.3609 24.8578 14.4375 23.7188 14.4375C22.5797 14.4375 21.6562 15.3609 21.6562 16.5C21.6562 17.6391 22.5797 18.5625 23.7188 18.5625Z" fill="#400082"/>
</svg>
